<svg width="19" height="19" viewBox="0 0 19 19" fill="none" xmlns="http://www.w3.org/2000/svg">
<path d="M6.89304 15.6016L14.25 8.24462L10.7556 4.7502L3.39863 12.1072C3.29725 12.2085 3.22528 12.3355 3.19042 12.4745L2.375 16.6252L6.52492 15.8098C6.66425 15.775 6.79171 15.7029 6.89304 15.6016ZM16.625 5.86962C16.9218 5.5727 17.0886 5.17004 17.0886 4.7502C17.0886 4.33036 16.9218 3.9277 16.625 3.63078L15.3694 2.3752C15.0725 2.07837 14.6698 1.91162 14.25 1.91162C13.8302 1.91162 13.4275 2.07837 13.1306 2.3752L11.875 3.63078L15.3694 7.1252L16.625 5.86962Z" fill="white"/>
</svg>
