<svg width="20" height="20" viewBox="0 0 20 20" fill="none" xmlns="http://www.w3.org/2000/svg">
<path d="M0 7.79297C0 3.49609 3.49609 0 7.79297 0C12.0898 0 15.5859 3.49609 15.5859 7.79297C15.5859 9.57031 14.9902 11.2012 13.9844 12.5098L18.7598 17.3145C18.9648 17.5195 19.082 17.8027 19.082 18.1152C19.082 18.7695 18.623 19.2676 17.959 19.2676C17.6465 19.2676 17.3535 19.1602 17.1289 18.9355L12.3242 14.1211C11.0449 15.0391 9.49219 15.5859 7.79297 15.5859C3.49609 15.5859 0 12.0898 0 7.79297ZM1.66992 7.79297C1.66992 11.1719 4.41406 13.916 7.79297 13.916C11.1719 13.916 13.916 11.1719 13.916 7.79297C13.916 4.41406 11.1719 1.66992 7.79297 1.66992C4.41406 1.66992 1.66992 4.41406 1.66992 7.79297Z" fill="#FF0055"/>
</svg>
