<svg width="23" height="24" viewBox="0 0 23 24" fill="none" xmlns="http://www.w3.org/2000/svg">
<path d="M0 9.35156C0 4.19531 4.19531 0 9.35156 0C14.5078 0 18.7031 4.19531 18.7031 9.35156C18.7031 11.4844 17.9883 13.4414 16.7812 15.0117L22.5117 20.7773C22.7578 21.0234 22.8984 21.3633 22.8984 21.7383C22.8984 22.5234 22.3477 23.1211 21.5508 23.1211C21.1758 23.1211 20.8242 22.9922 20.5547 22.7227L14.7891 16.9453C13.2539 18.0469 11.3906 18.7031 9.35156 18.7031C4.19531 18.7031 0 14.5078 0 9.35156ZM2.00391 9.35156C2.00391 13.4062 5.29688 16.6992 9.35156 16.6992C13.4062 16.6992 16.6992 13.4062 16.6992 9.35156C16.6992 5.29688 13.4062 2.00391 9.35156 2.00391C5.29688 2.00391 2.00391 5.29688 2.00391 9.35156Z" fill="#A3A3A3"/>
</svg>
